<?xml version="1.0" standalone="no"?><!DOCTYPE svg PUBLIC "-//W3C//DTD SVG 1.1//EN" "http://www.w3.org/Graphics/SVG/1.1/DTD/svg11.dtd"><svg t="1681581367999" class="icon" viewBox="0 0 1024 1024" version="1.1" xmlns="http://www.w3.org/2000/svg" p-id="7157" xmlns:xlink="http://www.w3.org/1999/xlink" width="200" height="200"><path d="M632.8 776.2c0 7.9-6.4 14.3-14.3 14.3H309.2c-7.9 0-14.3-6.4-14.3-14.3V370.7c0-7.9 6.4-14.3 14.3-14.3h198.7v-28.7H309.2c-23.7 0-43 19.3-43 43v405.5c0 23.7 19.3 43 43 43h309.2c23.7 0 43-19.3 43-43V475.1h-28.7v301.1z" p-id="7158"></path><path d="M507.9 385H323.6v376.8h280.6V475.1h-67.6c-15.8 0-28.7-12.8-28.7-28.7V385z m34.8 157.7h28.7v61.4h-28.7v-61.4z" p-id="7159"></path><path d="M725 290.8v-8.2c0-42.9-34.9-77.8-77.8-77.8s-77.8 34.9-77.8 77.8v8.2h-32.8v155.6h221.2V290.8H725z m-135.2-8.2c0-31.6 25.7-57.3 57.3-57.3 31.6 0 57.3 25.7 57.3 57.3v8.2H589.8v-8.2z" p-id="7160"></path></svg>