<?xml version="1.0" standalone="no"?><!DOCTYPE svg PUBLIC "-//W3C//DTD SVG 1.1//EN" "http://www.w3.org/Graphics/SVG/1.1/DTD/svg11.dtd"><svg t="1681562982067" class="icon" viewBox="0 0 1024 1024" version="1.1" xmlns="http://www.w3.org/2000/svg" p-id="4465" xmlns:xlink="http://www.w3.org/1999/xlink" width="200" height="200"><path d="M950.65504 519.993045 531.392164 72.018244c-5.03876-5.007037-11.612479-7.272637-18.406209-7.719822l-5.134951 0c-6.7968 0.413416-13.367449 2.682086-18.411325 7.719822L73.371566 519.993045c-11.58178 11.611455-10.873652 31.070646 1.597381 43.542702 0.189312 0.195451 0.413416 0.257873 0.607844 0.415462 5.550413 5.965875 13.236466 9.729595 21.817911 9.729595l94.334505 0 0 351.662245c0 9.375531 4.244674 17.578354 10.69048 23.416316 5.583159 6.603395 13.494339 10.942213 22.587438 10.942213l191.05843 0c8.744151 0 16.528442-3.959172 22.077831-10.145058 7.144724-5.835915 11.994172-14.326287 11.994172-24.27794l0-9.31618c-0.155543-0.896416-0.540306-1.689479-0.540306-2.64934L449.597253 717.91172c0-8.804527 7.145747-15.951297 15.950274-15.951297l93.059466 0c8.801457 0 15.94618 7.145747 15.94618 15.951297L574.553173 913.314085c0 0.701988-0.315178 1.308809-0.411369 1.977028l0 9.988492c0 9.951653 4.847401 18.441001 11.994172 24.27794 5.553483 6.185886 13.337773 10.145058 22.080901 10.145058l191.059454 0c9.094122 0 17.004279-4.338818 22.587438-10.942213 6.475482-5.837962 10.68434-14.040784 10.68434-23.416316L832.548108 573.679781l94.335529 0c8.714476 0 16.46295-3.923356 22.013363-10.081613 0.033769-0.027629 0.098237-0.064468 0.132006-0.092098C961.500039 551.093367 962.19998 531.603477 950.65504 519.993045L950.65504 519.993045zM416.418596 637.490086c-16.84362 0-30.497595 14.291494-30.497595 31.899524 0 0.735757 0.349971 1.339508 0.38374 2.073218l0 224.432539L255.533372 895.895367 255.533372 542.356378c0-4.561899-1.017166-8.841366-2.741437-12.728906-4.560876-11.580756-15.412015-19.751856-28.135804-19.751856l-55.514361 0 323.906088-351.432001c15.754822-15.763009 19.684318-15.82543 34.706453 0l326.713017 351.467817-54.80828 0c-12.727882 0-23.574928 8.163937-28.139897 19.745716-1.719154 3.922333-2.740414 8.201799-2.740414 12.727882l0 353.541035L637.978714 895.926066 637.978714 669.997454c0-0.098237-0.063445-0.193405-0.063445-0.287549 0-0.096191 0.063445-0.193405 0.063445-0.285502 0-17.61417-13.653975-31.903617-30.497595-31.903617L416.418596 637.520785 416.418596 637.490086zM416.418596 637.490086" fill="#1296db" p-id="4466"></path></svg>