<?xml version="1.0" standalone="no"?><!DOCTYPE svg PUBLIC "-//W3C//DTD SVG 1.1//EN" "http://www.w3.org/Graphics/SVG/1.1/DTD/svg11.dtd"><svg t="1681628695771" class="icon" viewBox="0 0 1024 1024" version="1.1" xmlns="http://www.w3.org/2000/svg" p-id="8269" xmlns:xlink="http://www.w3.org/1999/xlink" width="200" height="200"><path d="M511.8 511.7m-200.5 0a200.5 200.5 0 1 0 401 0 200.5 200.5 0 1 0-401 0Z" fill="#FFE02C" p-id="8270"></path><path d="M512 249.3h-0.4c-16.2 0-29.5-13.3-29.5-29.5V100.6c0-16.2 13.3-29.5 29.5-29.5h0.4c16.2 0 29.5 13.3 29.5 29.5v119.3c0 16.2-13.3 29.4-29.5 29.4zM326.4 326l-0.3 0.3c-11.5 11.5-30.2 11.5-41.7 0L200.1 242c-11.5-11.5-11.5-30.2 0-41.7l0.3-0.3c11.5-11.5 30.2-11.5 41.7 0l84.3 84.3c11.5 11.5 11.5 30.2 0 41.7zM249.4 511.5v0.4c0 16.2-13.3 29.5-29.5 29.5H100.7c-16.2 0-29.5-13.3-29.5-29.5v-0.4c0-16.2 13.3-29.5 29.5-29.5H220c16.2 0 29.4 13.3 29.4 29.5zM326.1 697.1l0.3 0.3c11.5 11.5 11.5 30.2 0 41.7l-84.3 84.3c-11.5 11.5-30.2 11.5-41.7 0l-0.3-0.3c-11.5-11.5-11.5-30.2 0-41.7l84.3-84.3c11.5-11.5 30.2-11.5 41.7 0zM511.6 774.1h0.4c16.2 0 29.5 13.3 29.5 29.5v119.3c0 16.2-13.3 29.5-29.5 29.5h-0.4c-16.2 0-29.5-13.3-29.5-29.5V803.6c0-16.3 13.3-29.5 29.5-29.5zM697.2 697.4l0.3-0.3c11.5-11.5 30.2-11.5 41.7 0l84.3 84.3c11.5 11.5 11.5 30.2 0 41.7l-0.3 0.3c-11.5 11.5-30.2 11.5-41.7 0l-84.3-84.3c-11.5-11.5-11.5-30.2 0-41.7zM774.2 511.9v-0.4c0-16.2 13.3-29.5 29.5-29.5H923c16.2 0 29.5 13.3 29.5 29.5v0.4c0 16.2-13.3 29.5-29.5 29.5H803.7c-16.3 0-29.5-13.3-29.5-29.5zM697.5 326.3l-0.3-0.3c-11.5-11.5-11.5-30.2 0-41.7l84.3-84.3c11.5-11.5 30.2-11.5 41.7 0l0.3 0.3c11.5 11.5 11.5 30.2 0 41.7l-84.3 84.3c-11.5 11.5-30.2 11.5-41.7 0z" fill="#FFE02C" p-id="8271"></path></svg>