<?xml version="1.0" standalone="no"?><!DOCTYPE svg PUBLIC "-//W3C//DTD SVG 1.1//EN" "http://www.w3.org/Graphics/SVG/1.1/DTD/svg11.dtd"><svg t="1681581250869" class="icon" viewBox="0 0 1024 1024" version="1.1" xmlns="http://www.w3.org/2000/svg" p-id="6130" xmlns:xlink="http://www.w3.org/1999/xlink" width="200" height="200"><path d="M576 192v640H448V192h128m128-128H320v896h384V64z" fill="#727171" p-id="6131"></path><path d="M320 576h384v64H320zM238.08 602.88C227.2 595.2 192 562.56 192 448a252.16 252.16 0 0 1 38.4-147.2l51.2 38.4L256 320l25.6 19.2A202.88 202.88 0 0 0 256 448c0 81.92 19.84 103.04 20.48 103.04zM144 699.52C128 691.84 64 643.2 64 448a394.24 394.24 0 0 1 71.68-245.12l48.64 42.24-24.32-21.12 24.32 20.48A334.08 334.08 0 0 0 128 448c0 160 48.64 197.12 49.28 197.12zM785.92 602.88l-35.84-53.76A192 192 0 0 0 768 448a202.88 202.88 0 0 0-25.6-108.8l51.2-38.4A252.16 252.16 0 0 1 832 448c0 114.56-35.2 147.2-46.08 154.88zM880 699.52l-32-55.04S896 606.72 896 448a334.08 334.08 0 0 0-56.32-203.52l48.64-41.6A394.24 394.24 0 0 1 960 448c0 195.2-64 243.84-80 251.52z" fill="#727171" p-id="6132"></path></svg>